<svg
  xmlns="http://www.w3.org/2000/svg"
  viewBox="0 0 64 64"
  role="img"
  aria-label="Red Hat"
>
  <path
    fill="#ef4444"
    d="M20 25c1.4-7.6 4.2-13.2 8.4-16.8 2.4-2 5.2-2 7.6-.2 4.4 3.4 7.2 9.1 8.5 17H20Z"
  />
  <path
    fill="#b91c1c"
    d="M12 29c5.2-3 11.6-4.5 20-4.5S46.8 26 52 29c-1.8 8.2-9.6 13.5-20 13.5S13.8 37.2 12 29Z"
  />
  <path
    fill="#f8fafc"
    d="M8 31c6 4.1 14 6.2 24 6.2S50 35.1 56 31v5.2c-6 4.3-14 6.5-24 6.5S14 40.5 8 36.2V31Z"
  />
  <path
    fill="#020617"
    d="M18 45h28c-2.6 6.8-7.3 10.2-14 10.2S20.6 51.8 18 45Z"
  />
</svg>
