<svg width="96" height="96" viewBox="0 0 96 96" fill="none" xmlns="http://www.w3.org/2000/svg" role="img" aria-label="Rocky Linux">
  <rect width="96" height="96" rx="28" fill="#0B1220"/>
  <rect x="8" y="8" width="80" height="80" rx="24" fill="#10B981" fill-opacity="0.12" stroke="#10B981" stroke-width="2.5"/>
  <svg x="26" y="26" width="44" height="44" viewBox="0 0 24 24" fill="#10B981" xmlns="http://www.w3.org/2000/svg">
    <path d="M23.332 15.957c.433-1.239.668-2.57.668-3.957 0-6.627-5.373-12-12-12S0 5.373 0 12c0 3.28 1.315 6.251 3.447 8.417L15.62 8.245l3.005 3.005zm-2.192 3.819l-5.52-5.52L6.975 22.9c1.528.706 3.23 1.1 5.025 1.1 3.661 0 6.94-1.64 9.14-4.224z"/>
  </svg>
</svg>
