<svg width="620" height="620" viewBox="0 0 620 620" fill="none" xmlns="http://www.w3.org/2000/svg">
  <circle cx="310" cy="310" r="248" fill="#2563EB" opacity="0.10"/>
  <circle cx="310" cy="310" r="194" fill="#38BDF8" opacity="0.08"/>

  <rect x="294" y="58" width="32" height="74" rx="16" fill="#94A3B8"/>
  <circle cx="310" cy="50" r="24" fill="#38BDF8"/>
  <circle cx="310" cy="50" r="42" fill="#38BDF8" opacity="0.16"/>

  <rect x="122" y="132" width="376" height="258" rx="84" fill="#E2E8F0" stroke="#F8FAFC" stroke-width="10"/>
  <rect x="156" y="172" width="308" height="146" rx="44" fill="#020617" stroke="#2563EB" stroke-width="8"/>
  <text x="310" y="270" text-anchor="middle" font-family="JetBrains Mono, Fira Code, Consolas, monospace" font-size="86" font-weight="900" fill="#22C55E">&gt;_</text>

  <rect x="76" y="222" width="54" height="92" rx="27" fill="#BFDBFE" stroke="#2563EB" stroke-width="6"/>
  <rect x="490" y="222" width="54" height="92" rx="27" fill="#BFDBFE" stroke="#2563EB" stroke-width="6"/>

  <rect x="190" y="372" width="240" height="162" rx="58" fill="#2563EB" stroke="#38BDF8" stroke-width="8"/>
  <text x="310" y="492" text-anchor="middle" font-family="Inter, Arial, sans-serif" font-size="138" font-weight="950" fill="#0B1220">8</text>

  <path d="M190 432C142 440 112 468 98 516" stroke="#38BDF8" stroke-width="18" stroke-linecap="round"/>
  <path d="M430 432C478 440 508 468 522 516" stroke="#38BDF8" stroke-width="18" stroke-linecap="round"/>

  <circle cx="100" cy="522" r="26" fill="#22C55E"/>
  <circle cx="520" cy="522" r="26" fill="#22C55E"/>
</svg>
